<?xml version="1.0" standalone="no"?>
<!DOCTYPE svg PUBLIC "-//W3C//DTD SVG 20010904//EN"
 "http://www.w3.org/TR/2001/REC-SVG-20010904/DTD/svg10.dtd">
<svg version="1.0" xmlns="http://www.w3.org/2000/svg"
 width="70.000000pt" height="70.000000pt" viewBox="0 0 70.000000 70.000000"
 preserveAspectRatio="xMidYMid meet">
<metadata>
Created by potrace 1.11, written by Peter Selinger 2001-2013
</metadata>
<g transform="translate(0.000000,70.000000) scale(0.100000,-0.100000)"
fill="#000000" stroke="none">
<path d="M211 604 c-45 -19 -108 -90 -121 -134 -18 -63 -12 -179 11 -226 26
-55 79 -101 124 -110 33 -6 35 -9 35 -45 0 -36 2 -39 29 -39 27 0 30 4 33 36
3 32 7 37 43 49 58 20 108 80 133 162 l21 68 0 -157 1 -158 40 0 40 0 0 240 0
240 -48 0 c-49 0 -49 0 -61 -42 -7 -24 -19 -56 -27 -73 -7 -16 -20 -55 -27
-85 l-14 -55 -23 75 c-12 41 -31 99 -42 128 -19 52 -19 52 -64 52 l-44 0 0
-165 c0 -91 -3 -165 -7 -165 -32 1 -73 75 -80 145 -7 64 18 147 53 174 40 31
89 35 140 10 44 -21 46 -21 59 -3 19 25 18 31 -3 54 -38 41 -136 53 -201 24z
m137 -307 c5 -7 14 -27 20 -44 10 -29 8 -34 -11 -48 -12 -8 -25 -15 -29 -15
-5 0 -8 39 -7 88 0 64 3 80 9 59 5 -16 13 -34 18 -40z"/>
</g>
</svg>
